<mxfile host="app.diagrams.net" modified="2024-05-25T03:15:35.781Z" agent="Mozilla/5.0 (Windows NT 10.0; Win64; x64) AppleWebKit/537.36 (KHTML, like Gecko) Chrome/123.0.0.0 Safari/537.36 OPR/109.0.0.0" etag="LhnFz2axh_juLTHQ8dpg" version="24.4.8" type="github">
  <diagram id="C5RBs43oDa-KdzZeNtuy" name="Page-1">
    <mxGraphModel dx="3776" dy="1417" grid="1" gridSize="10" guides="1" tooltips="1" connect="1" arrows="1" fold="1" page="1" pageScale="1" pageWidth="827" pageHeight="1169" math="0" shadow="0">
      <root>
        <mxCell id="WIyWlLk6GJQsqaUBKTNV-0" />
        <mxCell id="WIyWlLk6GJQsqaUBKTNV-1" parent="WIyWlLk6GJQsqaUBKTNV-0" />
        <mxCell id="vhS4gPI9MIylW9R1F_wd-4" value="" style="edgeStyle=orthogonalEdgeStyle;rounded=0;orthogonalLoop=1;jettySize=auto;html=1;exitX=0.5;exitY=0;exitDx=0;exitDy=0;" edge="1" parent="WIyWlLk6GJQsqaUBKTNV-1" source="vhS4gPI9MIylW9R1F_wd-0" target="vhS4gPI9MIylW9R1F_wd-3">
          <mxGeometry relative="1" as="geometry" />
        </mxCell>
        <mxCell id="vhS4gPI9MIylW9R1F_wd-0" value="Network Application&lt;br&gt;A1" style="rounded=0;whiteSpace=wrap;html=1;" vertex="1" parent="WIyWlLk6GJQsqaUBKTNV-1">
          <mxGeometry x="27.5" y="222.5" width="192.5" height="140" as="geometry" />
        </mxCell>
        <mxCell id="vhS4gPI9MIylW9R1F_wd-8" value="" style="edgeStyle=orthogonalEdgeStyle;rounded=0;orthogonalLoop=1;jettySize=auto;html=1;" edge="1" parent="WIyWlLk6GJQsqaUBKTNV-1" source="vhS4gPI9MIylW9R1F_wd-3" target="vhS4gPI9MIylW9R1F_wd-7">
          <mxGeometry relative="1" as="geometry" />
        </mxCell>
        <mxCell id="vhS4gPI9MIylW9R1F_wd-3" value="submit requirements&lt;div&gt;A2&lt;/div&gt;" style="shape=parallelogram;perimeter=parallelogramPerimeter;whiteSpace=wrap;html=1;fixedSize=1;rounded=0;" vertex="1" parent="WIyWlLk6GJQsqaUBKTNV-1">
          <mxGeometry x="327.5" y="142.5" width="152.5" height="80" as="geometry" />
        </mxCell>
        <mxCell id="vhS4gPI9MIylW9R1F_wd-7" value="NORTH API&lt;div&gt;A2&lt;/div&gt;" style="shape=singleArrow;whiteSpace=wrap;html=1;arrowWidth=0.4;arrowSize=0.4;rounded=0;rotation=90;" vertex="1" parent="WIyWlLk6GJQsqaUBKTNV-1">
          <mxGeometry x="490.63" y="259.38" width="146.25" height="92.5" as="geometry" />
        </mxCell>
        <mxCell id="vhS4gPI9MIylW9R1F_wd-40" value="CONTROL LAYER" style="whiteSpace=wrap;html=1;aspect=fixed;" vertex="1" parent="WIyWlLk6GJQsqaUBKTNV-1">
          <mxGeometry x="59" y="400" width="820" height="820" as="geometry" />
        </mxCell>
        <mxCell id="vhS4gPI9MIylW9R1F_wd-41" value="" style="edgeStyle=orthogonalEdgeStyle;rounded=0;orthogonalLoop=1;jettySize=auto;html=1;" edge="1" parent="WIyWlLk6GJQsqaUBKTNV-1" source="vhS4gPI9MIylW9R1F_wd-42" target="vhS4gPI9MIylW9R1F_wd-44">
          <mxGeometry relative="1" as="geometry" />
        </mxCell>
        <mxCell id="vhS4gPI9MIylW9R1F_wd-42" value="SDN CONTROLLER&lt;div&gt;B1&lt;br&gt;INTERPRET REQUIREMENTS&lt;/div&gt;" style="shape=hexagon;perimeter=hexagonPerimeter2;whiteSpace=wrap;html=1;fixedSize=1;" vertex="1" parent="WIyWlLk6GJQsqaUBKTNV-1">
          <mxGeometry x="460" y="510" width="187.5" height="60" as="geometry" />
        </mxCell>
        <mxCell id="vhS4gPI9MIylW9R1F_wd-43" value="" style="edgeStyle=orthogonalEdgeStyle;rounded=0;orthogonalLoop=1;jettySize=auto;html=1;" edge="1" parent="WIyWlLk6GJQsqaUBKTNV-1" source="vhS4gPI9MIylW9R1F_wd-44" target="vhS4gPI9MIylW9R1F_wd-46">
          <mxGeometry relative="1" as="geometry" />
        </mxCell>
        <mxCell id="vhS4gPI9MIylW9R1F_wd-44" value="B2&lt;br&gt;policy engine&lt;br&gt;DEFINE POLICIES" style="whiteSpace=wrap;html=1;" vertex="1" parent="WIyWlLk6GJQsqaUBKTNV-1">
          <mxGeometry x="373.75" y="710" width="125" height="50" as="geometry" />
        </mxCell>
        <mxCell id="vhS4gPI9MIylW9R1F_wd-45" value="" style="edgeStyle=orthogonalEdgeStyle;rounded=0;orthogonalLoop=1;jettySize=auto;html=1;" edge="1" parent="WIyWlLk6GJQsqaUBKTNV-1" source="vhS4gPI9MIylW9R1F_wd-46" target="vhS4gPI9MIylW9R1F_wd-48">
          <mxGeometry relative="1" as="geometry" />
        </mxCell>
        <mxCell id="vhS4gPI9MIylW9R1F_wd-46" value="B3(service abstraction layer)&lt;br&gt;abstract services" style="whiteSpace=wrap;html=1;" vertex="1" parent="WIyWlLk6GJQsqaUBKTNV-1">
          <mxGeometry x="590" y="705" width="120" height="60" as="geometry" />
        </mxCell>
        <mxCell id="vhS4gPI9MIylW9R1F_wd-47" value="" style="edgeStyle=orthogonalEdgeStyle;rounded=0;orthogonalLoop=1;jettySize=auto;html=1;" edge="1" parent="WIyWlLk6GJQsqaUBKTNV-1" source="vhS4gPI9MIylW9R1F_wd-48" target="vhS4gPI9MIylW9R1F_wd-50">
          <mxGeometry relative="1" as="geometry" />
        </mxCell>
        <mxCell id="vhS4gPI9MIylW9R1F_wd-48" value="B4(network topology layer)&lt;br&gt;UPDATE TOPOLOGY" style="rounded=1;whiteSpace=wrap;html=1;arcSize=32;" vertex="1" parent="WIyWlLk6GJQsqaUBKTNV-1">
          <mxGeometry x="560" y="850" width="155" height="65" as="geometry" />
        </mxCell>
        <mxCell id="vhS4gPI9MIylW9R1F_wd-49" value="" style="edgeStyle=orthogonalEdgeStyle;rounded=0;orthogonalLoop=1;jettySize=auto;html=1;" edge="1" parent="WIyWlLk6GJQsqaUBKTNV-1" source="vhS4gPI9MIylW9R1F_wd-50" target="vhS4gPI9MIylW9R1F_wd-52">
          <mxGeometry relative="1" as="geometry" />
        </mxCell>
        <mxCell id="vhS4gPI9MIylW9R1F_wd-50" value="B5(topology database)&lt;br&gt;NOTIFY CHANGES" style="rounded=1;whiteSpace=wrap;html=1;arcSize=32;" vertex="1" parent="WIyWlLk6GJQsqaUBKTNV-1">
          <mxGeometry x="360" y="852.5" width="140" height="60" as="geometry" />
        </mxCell>
        <mxCell id="vhS4gPI9MIylW9R1F_wd-51" value="" style="edgeStyle=orthogonalEdgeStyle;rounded=0;orthogonalLoop=1;jettySize=auto;html=1;" edge="1" parent="WIyWlLk6GJQsqaUBKTNV-1" source="vhS4gPI9MIylW9R1F_wd-52" target="vhS4gPI9MIylW9R1F_wd-54">
          <mxGeometry relative="1" as="geometry" />
        </mxCell>
        <mxCell id="vhS4gPI9MIylW9R1F_wd-52" value="B6(topology change listener)&lt;br&gt;TRIGGER RECALCULATION" style="rounded=1;whiteSpace=wrap;html=1;arcSize=32;" vertex="1" parent="WIyWlLk6GJQsqaUBKTNV-1">
          <mxGeometry x="100" y="852.5" width="170" height="60" as="geometry" />
        </mxCell>
        <mxCell id="vhS4gPI9MIylW9R1F_wd-53" value="" style="edgeStyle=orthogonalEdgeStyle;rounded=0;orthogonalLoop=1;jettySize=auto;html=1;" edge="1" parent="WIyWlLk6GJQsqaUBKTNV-1" source="vhS4gPI9MIylW9R1F_wd-54" target="vhS4gPI9MIylW9R1F_wd-56">
          <mxGeometry relative="1" as="geometry" />
        </mxCell>
        <mxCell id="vhS4gPI9MIylW9R1F_wd-54" value="B7(path computational module)&lt;br&gt;CALCULATE OPTIMAL PATHS" style="shape=parallelogram;perimeter=parallelogramPerimeter;whiteSpace=wrap;html=1;fixedSize=1;rounded=1;arcSize=32;" vertex="1" parent="WIyWlLk6GJQsqaUBKTNV-1">
          <mxGeometry x="125" y="992.5" width="205" height="60" as="geometry" />
        </mxCell>
        <mxCell id="vhS4gPI9MIylW9R1F_wd-55" value="" style="edgeStyle=orthogonalEdgeStyle;rounded=0;orthogonalLoop=1;jettySize=auto;html=1;" edge="1" parent="WIyWlLk6GJQsqaUBKTNV-1" source="vhS4gPI9MIylW9R1F_wd-56" target="vhS4gPI9MIylW9R1F_wd-58">
          <mxGeometry relative="1" as="geometry" />
        </mxCell>
        <mxCell id="vhS4gPI9MIylW9R1F_wd-56" value="B8(path selection algorithm)&lt;br&gt;GENERATE FLOW RULES" style="shape=parallelogram;perimeter=parallelogramPerimeter;whiteSpace=wrap;html=1;fixedSize=1;rounded=1;arcSize=32;" vertex="1" parent="WIyWlLk6GJQsqaUBKTNV-1">
          <mxGeometry x="350" y="992.5" width="222.5" height="60" as="geometry" />
        </mxCell>
        <mxCell id="vhS4gPI9MIylW9R1F_wd-57" value="" style="edgeStyle=orthogonalEdgeStyle;rounded=0;orthogonalLoop=1;jettySize=auto;html=1;" edge="1" parent="WIyWlLk6GJQsqaUBKTNV-1" source="vhS4gPI9MIylW9R1F_wd-58" target="vhS4gPI9MIylW9R1F_wd-59">
          <mxGeometry relative="1" as="geometry" />
        </mxCell>
        <mxCell id="vhS4gPI9MIylW9R1F_wd-58" value="B9(flow rule compiler)&lt;br&gt;compile flow rules&lt;span style=&quot;white-space: pre;&quot;&gt;&lt;/span&gt;" style="rounded=1;whiteSpace=wrap;html=1;arcSize=32;" vertex="1" parent="WIyWlLk6GJQsqaUBKTNV-1">
          <mxGeometry x="609.06" y="992.5" width="203.75" height="60" as="geometry" />
        </mxCell>
        <mxCell id="vhS4gPI9MIylW9R1F_wd-66" value="" style="edgeStyle=orthogonalEdgeStyle;rounded=0;orthogonalLoop=1;jettySize=auto;html=1;entryX=0.5;entryY=0;entryDx=0;entryDy=0;" edge="1" parent="WIyWlLk6GJQsqaUBKTNV-1" source="vhS4gPI9MIylW9R1F_wd-59" target="vhS4gPI9MIylW9R1F_wd-122">
          <mxGeometry relative="1" as="geometry">
            <mxPoint x="722.7882914782708" y="1255.0084422028947" as="targetPoint" />
          </mxGeometry>
        </mxCell>
        <mxCell id="vhS4gPI9MIylW9R1F_wd-59" value="B10(flow rule manager)" style="rounded=1;whiteSpace=wrap;html=1;arcSize=32;" vertex="1" parent="WIyWlLk6GJQsqaUBKTNV-1">
          <mxGeometry x="640" y="1132.5" width="141.88" height="60" as="geometry" />
        </mxCell>
        <mxCell id="vhS4gPI9MIylW9R1F_wd-62" value="DATA LAYER" style="rounded=0;whiteSpace=wrap;html=1;" vertex="1" parent="WIyWlLk6GJQsqaUBKTNV-1">
          <mxGeometry x="-56" y="1379" width="939" height="750" as="geometry" />
        </mxCell>
        <mxCell id="vhS4gPI9MIylW9R1F_wd-68" value="" style="edgeStyle=orthogonalEdgeStyle;rounded=0;orthogonalLoop=1;jettySize=auto;html=1;exitX=0;exitY=0.5;exitDx=0;exitDy=0;" edge="1" parent="WIyWlLk6GJQsqaUBKTNV-1" source="vhS4gPI9MIylW9R1F_wd-122" target="vhS4gPI9MIylW9R1F_wd-67">
          <mxGeometry relative="1" as="geometry">
            <mxPoint x="632.81" y="1290" as="sourcePoint" />
          </mxGeometry>
        </mxCell>
        <mxCell id="vhS4gPI9MIylW9R1F_wd-70" value="" style="edgeStyle=orthogonalEdgeStyle;rounded=0;orthogonalLoop=1;jettySize=auto;html=1;" edge="1" parent="WIyWlLk6GJQsqaUBKTNV-1" source="vhS4gPI9MIylW9R1F_wd-67" target="vhS4gPI9MIylW9R1F_wd-69">
          <mxGeometry relative="1" as="geometry" />
        </mxCell>
        <mxCell id="vhS4gPI9MIylW9R1F_wd-67" value="C1&lt;br&gt;(network devices)&lt;br&gt;RECEIVE INSTRUCTIONS" style="whiteSpace=wrap;html=1;rounded=1;arcSize=32;" vertex="1" parent="WIyWlLk6GJQsqaUBKTNV-1">
          <mxGeometry x="-40" y="1410" width="170" height="60" as="geometry" />
        </mxCell>
        <mxCell id="vhS4gPI9MIylW9R1F_wd-69" value="C2(forwarding Engine)&lt;br&gt;check flow table" style="rounded=1;whiteSpace=wrap;html=1;arcSize=32;" vertex="1" parent="WIyWlLk6GJQsqaUBKTNV-1">
          <mxGeometry x="235" y="1410" width="120" height="60" as="geometry" />
        </mxCell>
        <mxCell id="vhS4gPI9MIylW9R1F_wd-78" value="" style="edgeStyle=orthogonalEdgeStyle;rounded=0;orthogonalLoop=1;jettySize=auto;html=1;" edge="1" parent="WIyWlLk6GJQsqaUBKTNV-1" source="vhS4gPI9MIylW9R1F_wd-75" target="vhS4gPI9MIylW9R1F_wd-77">
          <mxGeometry relative="1" as="geometry" />
        </mxCell>
        <mxCell id="vhS4gPI9MIylW9R1F_wd-75" value="C4(packet Processor)&lt;br&gt;FORWARD/DROP/MODIFY PACKETS" style="rounded=1;whiteSpace=wrap;html=1;arcSize=32;" vertex="1" parent="WIyWlLk6GJQsqaUBKTNV-1">
          <mxGeometry x="-40" y="1770" width="240" height="60" as="geometry" />
        </mxCell>
        <mxCell id="vhS4gPI9MIylW9R1F_wd-107" value="" style="edgeStyle=orthogonalEdgeStyle;rounded=0;orthogonalLoop=1;jettySize=auto;html=1;" edge="1" parent="WIyWlLk6GJQsqaUBKTNV-1" source="vhS4gPI9MIylW9R1F_wd-77" target="vhS4gPI9MIylW9R1F_wd-106">
          <mxGeometry relative="1" as="geometry" />
        </mxCell>
        <mxCell id="vhS4gPI9MIylW9R1F_wd-77" value="C5(execute actions)&lt;br&gt;collect metrics" style="shape=parallelogram;perimeter=parallelogramPerimeter;whiteSpace=wrap;html=1;fixedSize=1;rounded=1;arcSize=32;" vertex="1" parent="WIyWlLk6GJQsqaUBKTNV-1">
          <mxGeometry x="260" y="1770" width="167" height="60" as="geometry" />
        </mxCell>
        <mxCell id="vhS4gPI9MIylW9R1F_wd-105" style="edgeStyle=orthogonalEdgeStyle;rounded=0;orthogonalLoop=1;jettySize=auto;html=1;exitX=1;exitY=0.5;exitDx=0;exitDy=0;entryX=0;entryY=0.5;entryDx=0;entryDy=0;" edge="1" parent="WIyWlLk6GJQsqaUBKTNV-1" source="vhS4gPI9MIylW9R1F_wd-82" target="vhS4gPI9MIylW9R1F_wd-100">
          <mxGeometry relative="1" as="geometry">
            <Array as="points">
              <mxPoint x="420" y="1585" />
              <mxPoint x="420" y="1440" />
            </Array>
          </mxGeometry>
        </mxCell>
        <mxCell id="vhS4gPI9MIylW9R1F_wd-116" style="edgeStyle=orthogonalEdgeStyle;rounded=0;orthogonalLoop=1;jettySize=auto;html=1;exitX=0;exitY=0.5;exitDx=0;exitDy=0;entryX=1;entryY=0.5;entryDx=0;entryDy=0;" edge="1" parent="WIyWlLk6GJQsqaUBKTNV-1" source="vhS4gPI9MIylW9R1F_wd-82" target="vhS4gPI9MIylW9R1F_wd-86">
          <mxGeometry relative="1" as="geometry" />
        </mxCell>
        <mxCell id="vhS4gPI9MIylW9R1F_wd-82" value="c3(flow table lookup)" style="rhombus;whiteSpace=wrap;html=1;rounded=1;arcSize=32;" vertex="1" parent="WIyWlLk6GJQsqaUBKTNV-1">
          <mxGeometry x="220" y="1490" width="150" height="190" as="geometry" />
        </mxCell>
        <mxCell id="vhS4gPI9MIylW9R1F_wd-86" value="MATCH FOUND" style="rounded=1;whiteSpace=wrap;html=1;arcSize=32;" vertex="1" parent="WIyWlLk6GJQsqaUBKTNV-1">
          <mxGeometry x="30" y="1570" width="77.5" height="30" as="geometry" />
        </mxCell>
        <mxCell id="vhS4gPI9MIylW9R1F_wd-99" value="" style="edgeStyle=orthogonalEdgeStyle;rounded=0;orthogonalLoop=1;jettySize=auto;html=1;" edge="1" parent="WIyWlLk6GJQsqaUBKTNV-1" source="vhS4gPI9MIylW9R1F_wd-100" target="vhS4gPI9MIylW9R1F_wd-102">
          <mxGeometry relative="1" as="geometry" />
        </mxCell>
        <mxCell id="vhS4gPI9MIylW9R1F_wd-100" value="NO MATCH FOUND" style="whiteSpace=wrap;html=1;rounded=1;arcSize=32;" vertex="1" parent="WIyWlLk6GJQsqaUBKTNV-1">
          <mxGeometry x="525" y="1430" width="120" height="40" as="geometry" />
        </mxCell>
        <mxCell id="vhS4gPI9MIylW9R1F_wd-101" value="" style="edgeStyle=orthogonalEdgeStyle;rounded=0;orthogonalLoop=1;jettySize=auto;html=1;entryX=0;entryY=0.5;entryDx=0;entryDy=0;exitX=1;exitY=0.5;exitDx=0;exitDy=0;" edge="1" parent="WIyWlLk6GJQsqaUBKTNV-1" source="vhS4gPI9MIylW9R1F_wd-102" target="vhS4gPI9MIylW9R1F_wd-104">
          <mxGeometry relative="1" as="geometry">
            <mxPoint x="1097.19" y="1750" as="targetPoint" />
            <Array as="points">
              <mxPoint x="680" y="1770" />
            </Array>
            <mxPoint x="690" y="1580" as="sourcePoint" />
          </mxGeometry>
        </mxCell>
        <mxCell id="vhS4gPI9MIylW9R1F_wd-102" value="C6(packet buffer)&lt;br&gt;SEND UNMATCHED PACKETS" style="rounded=1;whiteSpace=wrap;html=1;arcSize=32;" vertex="1" parent="WIyWlLk6GJQsqaUBKTNV-1">
          <mxGeometry x="489.99999999999994" y="1570" width="190" height="60" as="geometry" />
        </mxCell>
        <mxCell id="vhS4gPI9MIylW9R1F_wd-103" style="edgeStyle=orthogonalEdgeStyle;rounded=0;orthogonalLoop=1;jettySize=auto;html=1;exitX=0.5;exitY=0;exitDx=0;exitDy=0;entryX=1;entryY=0.5;entryDx=0;entryDy=0;" edge="1" parent="WIyWlLk6GJQsqaUBKTNV-1" source="vhS4gPI9MIylW9R1F_wd-104" target="vhS4gPI9MIylW9R1F_wd-42">
          <mxGeometry relative="1" as="geometry">
            <mxPoint x="879" y="540" as="targetPoint" />
            <Array as="points">
              <mxPoint x="1090" y="540" />
              <mxPoint x="658" y="540" />
            </Array>
            <mxPoint x="1084" y="1680" as="sourcePoint" />
          </mxGeometry>
        </mxCell>
        <mxCell id="vhS4gPI9MIylW9R1F_wd-104" value="C7(controller packet interface)&lt;br&gt;SEND BACK TO CONTROLLER" style="ellipse;whiteSpace=wrap;html=1;aspect=fixed;" vertex="1" parent="WIyWlLk6GJQsqaUBKTNV-1">
          <mxGeometry x="1030" y="1710" width="120" height="120" as="geometry" />
        </mxCell>
        <mxCell id="vhS4gPI9MIylW9R1F_wd-109" value="" style="edgeStyle=orthogonalEdgeStyle;rounded=0;orthogonalLoop=1;jettySize=auto;html=1;" edge="1" parent="WIyWlLk6GJQsqaUBKTNV-1" source="vhS4gPI9MIylW9R1F_wd-106" target="vhS4gPI9MIylW9R1F_wd-108">
          <mxGeometry relative="1" as="geometry" />
        </mxCell>
        <mxCell id="vhS4gPI9MIylW9R1F_wd-106" value="C8(collection metrics module)&lt;br&gt;ANALYZE DATA" style="shape=parallelogram;perimeter=parallelogramPerimeter;whiteSpace=wrap;html=1;fixedSize=1;rounded=1;arcSize=32;" vertex="1" parent="WIyWlLk6GJQsqaUBKTNV-1">
          <mxGeometry x="460" y="1850" width="186.25" height="60" as="geometry" />
        </mxCell>
        <mxCell id="vhS4gPI9MIylW9R1F_wd-110" style="edgeStyle=orthogonalEdgeStyle;rounded=0;orthogonalLoop=1;jettySize=auto;html=1;exitX=1;exitY=0.5;exitDx=0;exitDy=0;entryX=1;entryY=0.25;entryDx=0;entryDy=0;" edge="1" parent="WIyWlLk6GJQsqaUBKTNV-1" source="vhS4gPI9MIylW9R1F_wd-108" target="vhS4gPI9MIylW9R1F_wd-48">
          <mxGeometry relative="1" as="geometry">
            <Array as="points">
              <mxPoint x="960" y="2070" />
              <mxPoint x="960" y="866" />
            </Array>
          </mxGeometry>
        </mxCell>
        <mxCell id="vhS4gPI9MIylW9R1F_wd-108" value="C9(monitoring agent)&lt;br&gt;REPORT TO CONTROLLER" style="whiteSpace=wrap;html=1;rounded=1;arcSize=32;" vertex="1" parent="WIyWlLk6GJQsqaUBKTNV-1">
          <mxGeometry x="657.5" y="2040" width="202.5" height="60" as="geometry" />
        </mxCell>
        <mxCell id="vhS4gPI9MIylW9R1F_wd-114" style="edgeStyle=orthogonalEdgeStyle;rounded=0;orthogonalLoop=1;jettySize=auto;html=1;exitX=0.5;exitY=1;exitDx=0;exitDy=0;entryX=0.454;entryY=0.05;entryDx=0;entryDy=0;entryPerimeter=0;" edge="1" parent="WIyWlLk6GJQsqaUBKTNV-1" source="vhS4gPI9MIylW9R1F_wd-86" target="vhS4gPI9MIylW9R1F_wd-75">
          <mxGeometry relative="1" as="geometry" />
        </mxCell>
        <mxCell id="vhS4gPI9MIylW9R1F_wd-115" style="edgeStyle=orthogonalEdgeStyle;rounded=0;orthogonalLoop=1;jettySize=auto;html=1;exitX=0.5;exitY=1;exitDx=0;exitDy=0;entryX=0.495;entryY=0.042;entryDx=0;entryDy=0;entryPerimeter=0;" edge="1" parent="WIyWlLk6GJQsqaUBKTNV-1" source="vhS4gPI9MIylW9R1F_wd-69" target="vhS4gPI9MIylW9R1F_wd-82">
          <mxGeometry relative="1" as="geometry" />
        </mxCell>
        <mxCell id="vhS4gPI9MIylW9R1F_wd-120" style="edgeStyle=orthogonalEdgeStyle;rounded=0;orthogonalLoop=1;jettySize=auto;html=1;exitX=1;exitY=0.5;exitDx=0;exitDy=0;entryX=0.5;entryY=0;entryDx=0;entryDy=0;exitPerimeter=0;" edge="1" parent="WIyWlLk6GJQsqaUBKTNV-1" source="vhS4gPI9MIylW9R1F_wd-7" target="vhS4gPI9MIylW9R1F_wd-42">
          <mxGeometry relative="1" as="geometry" />
        </mxCell>
        <mxCell id="vhS4gPI9MIylW9R1F_wd-122" value="B11&lt;br&gt;SOUTHBOUND API" style="shape=dataStorage;whiteSpace=wrap;html=1;fixedSize=1;" vertex="1" parent="WIyWlLk6GJQsqaUBKTNV-1">
          <mxGeometry x="626.4000000000001" y="1270" width="169.06" height="80" as="geometry" />
        </mxCell>
      </root>
    </mxGraphModel>
  </diagram>
</mxfile>
